<?xml version="1.0" encoding="UTF-8" standalone="no"?>
<!-- Created with Inkscape (http://www.inkscape.org/) -->

<svg
   width="21mm"
   height="52mm"
   viewBox="0 0 21 52"
   version="1.1"
   id="svg4219"
   inkscape:version="1.2 (56b05e47e7, 2022-06-09, custom)"
   sodipodi:docname="BoarbMenu.svg"
   xmlns:inkscape="http://www.inkscape.org/namespaces/inkscape"
   xmlns:sodipodi="http://sodipodi.sourceforge.net/DTD/sodipodi-0.dtd"
   xmlns="http://www.w3.org/2000/svg"
   xmlns:svg="http://www.w3.org/2000/svg">
  <sodipodi:namedview
     id="namedview4221"
     pagecolor="#ffffff"
     bordercolor="#666666"
     borderopacity="1.0"
     inkscape:showpageshadow="2"
     inkscape:pageopacity="0.0"
     inkscape:pagecheckerboard="0"
     inkscape:deskcolor="#d1d1d1"
     inkscape:document-units="mm"
     showgrid="false"
     inkscape:zoom="0.70199214"
     inkscape:cx="397.44035"
     inkscape:cy="561.9721"
     inkscape:window-width="1920"
     inkscape:window-height="948"
     inkscape:window-x="0"
     inkscape:window-y="0"
     inkscape:window-maximized="1"
     inkscape:current-layer="layer1" />
  <defs
     id="defs4216" />
  <g
     inkscape:label="Calque 1"
     inkscape:groupmode="layer"
     id="layer1">
    <g
       id="g4384"
       transform="matrix(0,-0.60349581,0.60349581,0,-29.979528,39.500717)">
      <path
         d="m -14.502732,56.918887 h 0.834285 q 1.694639,0 2.841779,1.068927 1.147141,1.042856 1.147141,2.685353 0,0.990711 -0.651784,2.033567 -0.625713,1.016784 -1.486068,1.329639 2.007495,0.495357 3.337135,2.137854 1.329641,1.642496 1.329641,4.145348 0,2.476781 -1.903211,4.32785 -1.90321,1.824995 -4.614633,1.824995 h -0.834285 z m 0.834285,7.586772 v 11.236763 h 0.208571 q 2.242138,0 3.858564,-1.668569 1.642496,-1.668567 1.642496,-3.962848 0,-2.294282 -1.616425,-3.936778 -1.616425,-1.668568 -3.884635,-1.668568 z m 0,-6.856773 v 6.152846 h 0.208571 q 1.173211,0 2.059638,-0.93857 0.912499,-0.964641 0.912499,-2.189995 0,-1.251427 -0.886427,-2.137854 -0.886427,-0.886427 -2.08571,-0.886427 z"
         style="font-size:40px;line-height:1.25;font-family:'Poiret One';-inkscape-font-specification:'Poiret One';white-space:pre;fill:none;fill-opacity:1;stroke:#5e48d7;stroke-width:2.09855;stroke-dasharray:none;stroke-opacity:1"
         id="path348" />
      <path
         d="m 5.407849,74.236675 q -3.060834,0 -5.312026,-2.310435 -2.231447,-2.310435 -2.231447,-5.391016 0,-3.100328 2.270942,-5.351521 2.27094,-2.270941 5.450255,-2.270941 3.179318,0 5.430511,2.251194 2.251194,2.251193 2.251194,5.371268 0,3.100328 -2.231446,5.410763 -2.231447,2.290688 -5.331774,2.290688 z m 7.207768,-7.661957 q 0,-2.922601 -2.073468,-4.996069 -2.05372,-2.093215 -4.976323,-2.093215 -2.902854,0 -4.976321,2.093215 -2.073468,2.073468 -2.073468,4.996069 0,2.902855 2.073468,4.996069 2.073467,2.093216 4.976321,2.093216 2.902856,0 4.976323,-2.093216 2.073468,-2.093214 2.073468,-4.996069 z"
         style="font-size:40px;line-height:1.25;font-family:'Poiret One';-inkscape-font-specification:'Poiret One';white-space:pre;fill:none;fill-opacity:1;stroke:#eaf27c;stroke-width:1.58951;stroke-dasharray:none;stroke-opacity:1"
         id="path350-3" />
      <path
         d="m 5.293164,76.811349 q -4.041064,0 -7.0132,-3.050351 -2.946067,-3.050351 -2.946067,-7.117486 0,-4.093207 2.99821,-7.065344 2.998208,-2.998208 7.195698,-2.998208 4.197493,0 7.169629,2.972137 2.972138,2.972137 2.972138,7.091415 0,4.093206 -2.946066,7.143557 -2.946066,3.02428 -7.039272,3.02428 z m 9.516053,-10.115695 q 0,-3.858563 -2.737495,-6.596058 -2.711423,-2.763566 -6.569988,-2.763566 -3.832492,0 -6.569986,2.763566 -2.737495,2.737495 -2.737495,6.596058 0,3.832493 2.737495,6.596058 2.737494,2.763567 6.569986,2.763567 3.832494,0 6.569988,-2.763567 2.737495,-2.763565 2.737495,-6.596058 z"
         style="font-size:40px;line-height:1.25;font-family:'Poiret One';-inkscape-font-specification:'Poiret One';white-space:pre;fill:none;fill-opacity:1;stroke:#5e48d7;stroke-width:2.09855;stroke-dasharray:none;stroke-opacity:1"
         id="path350" />
      <path
         d="M 25.394162,56.449603 35.170929,76.47242 H 34.258431 L 30.556296,69.016007 H 20.101673 l -3.649992,7.456413 h -0.808213 z m -0.07821,1.798926 -4.875346,10.011408 h 9.802837 z"
         style="font-size:40px;line-height:1.25;font-family:'Poiret One';-inkscape-font-specification:'Poiret One';white-space:pre;fill:none;fill-opacity:1;stroke:#5e48d7;stroke-width:2.09855;stroke-dasharray:none;stroke-opacity:1"
         id="path352" />
      <path
         d="m 37.908372,56.918887 h 1.121068 q 2.528924,0 4.432135,1.87714 1.929281,1.851068 1.929281,4.379991 0,2.502852 -1.955352,4.353921 -1.955354,1.851067 -4.197492,1.851067 h -0.1825 l 6.726416,7.091414 h -1.12107 l -5.918202,-6.204988 v 6.204988 h -0.834284 z m 0.834284,11.706049 h 0.469284 q 2.111781,0 3.728207,-1.616426 1.616425,-1.616424 1.616425,-3.832492 0,-2.216067 -1.668568,-3.858564 -1.668567,-1.642497 -3.806421,-1.642497 h -0.338927 z"
         style="font-size:40px;line-height:1.25;font-family:'Poiret One';-inkscape-font-specification:'Poiret One';white-space:pre;fill:none;fill-opacity:1;stroke:#5e48d7;stroke-width:2.09855;stroke-dasharray:none;stroke-opacity:1"
         id="path354" />
      <path
         d="m 53.966468,65.034934 c -0.661174,0.235148 -2.104998,0.461355 -2.542915,1.241062 -0.437913,0.779706 -0.656872,1.763621 -0.656872,2.951744 0,1.175747 0.313413,2.20298 0.940231,3.081699 0.626825,0.866337 1.933824,1.62489 2.826834,1.62489 m -0.547077,-8.846457 v 8.001271 H 53.88363 c -0.73845,0 -1.373866,-0.396042 -1.906237,-1.188123 -0.540956,-0.792082 -0.811438,-1.732679 -0.811438,-2.821794 0,-1.089113 0.266188,-2.023524 0.798559,-2.80323 0.532371,-0.792083 1.17208,-1.188124 1.919116,-1.188124 z"
         style="font-size:40px;line-height:1.25;font-family:'Poiret One';-inkscape-font-specification:'Poiret One';white-space:pre;fill:none;fill-opacity:1;stroke:#eaf27c;stroke-width:1.24468;stroke-dasharray:none;stroke-opacity:1"
         id="path356-6"
         sodipodi:nodetypes="cssccccscscsc" />
      <path
         d="m 55.962123,56.299057 h -0.834277 q -1.694631,0 -2.841765,1.068927 -1.147134,1.042856 -1.147134,2.685353 0,0.990711 0.651777,2.033567 0.625707,1.016784 1.486061,1.329639 -2.007488,0.495357 -3.337119,2.137854 -1.329624,1.642496 -1.329624,4.145348 0,2.476781 1.903191,4.32785 1.903198,1.824995 4.614613,1.824995 h 0.834277 z m -0.834277,7.586772 v 11.236763 h -0.20857 q -2.242125,0 -3.858546,-1.668569 -1.642491,-1.668567 -1.642491,-3.962848 0,-2.294282 1.616421,-3.936778 1.616421,-1.668568 3.884616,-1.668568 z m 0,-6.856773 v 6.152846 h -0.20857 q -1.173211,0 -2.059628,-0.93857 -0.912494,-0.964641 -0.912494,-2.189995 0,-1.251427 0.886424,-2.137854 0.886417,-0.886427 2.085698,-0.886427 z"
         style="font-size:40px;line-height:1.25;font-family:'Poiret One';-inkscape-font-specification:'Poiret One';white-space:pre;fill:none;fill-opacity:1;stroke:#5e48d7;stroke-width:2.09855;stroke-dasharray:none;stroke-opacity:1"
         id="path356" />
    </g>
  </g>
</svg>
